<svg width="107" height="40" viewBox="0 0 107 40" fill="none" xmlns="http://www.w3.org/2000/svg">
<g clip-path="url(#clip0_234_16780)">
<path d="M3.45145 16.6881C3.98127 17.3452 4.59122 17.8561 5.29942 18.4492C6.00762 19.0423 8.51135 20.0001 10.5001 20.0001C12.2425 20.0001 13.8 19.597 15.1728 18.7909C16.528 17.9848 17.584 16.8721 18.3408 15.4526C19.0975 14.0332 19.4759 12.4298 19.4759 10.6423C19.4759 8.85496 19.0975 7.25153 18.3408 5.8321C17.584 4.41267 16.528 3.29991 15.1728 2.49382C13.8 1.68772 12.2425 1.28467 10.5001 1.28467C8.75775 1.28467 7.20898 1.68772 5.85381 2.49382C4.48103 3.29991 3.41625 4.41267 2.65947 5.8321C1.90269 7.25153 1.52429 8.85496 1.52429 10.6423C1.52429 11.7989 1.69149 12.8941 2.02588 13.9281C2.36028 14.9444 2.92164 16.0309 3.45145 16.6881ZM10.5001 17.3452C9.18014 17.3452 8.02736 16.9684 7.04178 16.2149C6.0562 15.4614 5.9154 15.181 5.40501 14.1646C4.89462 13.1482 4.63943 11.9741 4.63943 10.6423C4.63943 9.36315 4.88583 8.21534 5.37862 7.19896C5.87141 6.16506 6.56659 5.36772 7.46418 4.80696C8.34416 4.22868 9.35614 3.93953 10.5001 3.93953C11.6441 3.93953 12.6649 4.22868 13.5625 4.80696C14.4424 5.36772 15.1288 6.16506 15.6216 7.19896C16.1144 8.21534 16.3608 9.36315 16.3608 10.6423C16.3608 11.9216 16.1144 13.0781 15.6216 14.1121C15.1288 15.1284 14.4424 15.9258 13.5625 16.5041C12.6649 17.0648 11.6441 17.3452 10.5001 17.3452Z" fill="black"/>
<path d="M33.7191 6.38403V19.8423H31.2112L30.8944 18.1338C29.8736 19.378 28.4832 20.0001 26.7233 20.0001C25.1393 20.0001 23.8545 19.5094 22.869 18.528C21.8834 17.5467 21.3906 15.9696 21.3906 13.7966V6.38403H24.2417V13.5075C24.2417 14.8218 24.5057 15.8206 25.0337 16.5041C25.5617 17.1875 26.3449 17.5292 27.3833 17.5292C28.4744 17.5292 29.328 17.1349 29.944 16.3463C30.56 15.5402 30.868 14.445 30.868 13.0606V6.38403H33.7191Z" fill="black"/>
<path d="M49.4646 17.3715V19.8423H47.9598C47.0798 19.8423 46.4462 19.6583 46.059 19.2903C45.6719 18.9223 45.4783 18.3879 45.4783 17.6869C44.4575 19.229 42.9703 20.0001 41.0168 20.0001C39.5032 20.0001 38.2888 19.6496 37.3736 18.9486C36.4584 18.2477 36.0008 17.2839 36.0008 16.0572C36.0008 14.6728 36.4936 13.6126 37.4792 12.8766C38.4648 12.1231 39.8992 11.7463 41.7823 11.7463H45.1879V10.9315C45.1879 10.178 44.9239 9.59089 44.3959 9.17032C43.8679 8.73222 43.1375 8.51317 42.2047 8.51317C41.3775 8.51317 40.6912 8.69717 40.1456 9.06517C39.6176 9.41565 39.3008 9.88879 39.1952 10.4846H36.3968C36.5376 9.13527 37.136 8.0926 38.192 7.3566C39.248 6.60308 40.6296 6.22632 42.3367 6.22632C44.1495 6.22632 45.5487 6.64689 46.5342 7.48803C47.5198 8.32917 48.0126 9.53831 48.0126 11.1155V16.4252C48.0126 17.056 48.3118 17.3715 48.9102 17.3715H49.4646ZM45.1879 13.8492H41.6503C40.7703 13.8492 40.0928 14.0244 39.6176 14.3749C39.1424 14.7079 38.9048 15.2073 38.9048 15.8732C38.9048 16.4515 39.1248 16.9159 39.5648 17.2663C40.0224 17.6168 40.6383 17.792 41.4127 17.792C42.5919 17.792 43.5071 17.4766 44.1583 16.8458C44.8271 16.2149 45.1703 15.3738 45.1879 14.3223V13.8492Z" fill="black"/>
<path d="M58.1455 6.22632C59.747 6.22632 61.0494 6.71698 62.0526 7.69832C63.0734 8.67965 63.5838 10.2568 63.5838 12.4298V19.8423H60.7062V12.5875C60.7062 11.3082 60.4334 10.3357 59.8878 9.66974C59.3422 9.00384 58.5415 8.67089 57.4855 8.67089C56.3591 8.67089 55.4703 9.06517 54.8191 9.85374C54.1856 10.6248 53.8688 11.6938 53.8688 13.0606V19.8423H51.0176V6.38403H53.4992L53.816 8.14517C54.8367 6.86593 56.2799 6.22632 58.1455 6.22632Z" fill="black"/>
<path d="M67.0479 8.88124H64.6983V6.3841H67.0479V2.62524H69.9254V6.3841H73.1725V8.88124H69.9254V15.8996C69.9254 16.4253 70.031 16.8021 70.2422 17.0299C70.4534 17.2401 70.8142 17.3453 71.3246 17.3453H73.4893V19.8424H70.7438C69.459 19.8424 68.5174 19.5445 67.919 18.9487C67.3383 18.3529 67.0479 17.4329 67.0479 16.1887V8.88124Z" fill="black"/>
<path d="M76.445 0.995361C76.9378 0.995361 77.3514 1.16184 77.6858 1.49479C78.0202 1.81022 78.1874 2.21326 78.1874 2.70393C78.1874 3.1946 78.0202 3.60641 77.6858 3.93936C77.3514 4.25479 76.9378 4.4125 76.445 4.4125C75.9523 4.4125 75.5387 4.25479 75.2043 3.93936C74.8699 3.60641 74.7027 3.1946 74.7027 2.70393C74.7027 2.21326 74.8699 1.81022 75.2043 1.49479C75.5387 1.16184 75.9523 0.995361 76.445 0.995361ZM75.0195 6.38393H77.8706V19.8422H75.0195V6.38393Z" fill="black"/>
<path d="M79.3191 6.38403H82.3814L86.1038 16.7932L89.7733 6.38403H92.7828L87.7933 19.8423H84.3086L79.3191 6.38403Z" fill="black"/>
<path d="M93.2089 13.1395C93.2089 11.7551 93.4817 10.546 94.0273 9.51203C94.5905 8.4606 95.3649 7.65451 96.3505 7.09374C97.3536 6.51546 98.4976 6.22632 99.7824 6.22632C101.085 6.22632 102.229 6.48917 103.214 7.01489C104.218 7.5406 105.001 8.28536 105.564 9.24917C106.145 10.213 106.444 11.3433 106.461 12.64C106.461 12.9905 106.435 13.3498 106.382 13.7178H96.1921V13.8755C96.2625 15.0496 96.632 15.9783 97.3008 16.6618C97.9696 17.3452 98.8584 17.6869 99.9672 17.6869C100.847 17.6869 101.586 17.4854 102.185 17.0823C102.783 16.6618 103.179 16.0747 103.373 15.3212H106.224C105.977 16.6881 105.309 17.8096 104.217 18.6858C103.144 19.562 101.798 20.0001 100.178 20.0001C98.7704 20.0001 97.5384 19.7197 96.4825 19.1589C95.4441 18.5806 94.6345 17.7745 94.0537 16.7406C93.4905 15.7067 93.2089 14.5063 93.2089 13.1395ZM103.558 11.6412C103.434 10.6599 103.038 9.89755 102.37 9.35432C101.718 8.79355 100.891 8.51317 99.888 8.51317C98.9552 8.51317 98.1456 8.80232 97.4592 9.3806C96.7905 9.94136 96.4033 10.6949 96.2977 11.6412H103.558Z" fill="black"/>
<path d="M8.41277 12.2285C7.23038 12.2285 6.1187 12.7676 5.36187 13.7029L2.89382 16.7534C2.64891 17.056 2.2928 17.2269 1.91746 17.2269H0V20.0126H1.91746C3.09973 20.0126 4.21142 19.4735 4.96825 18.5382L7.4363 15.4878C7.68121 15.1851 8.03742 15.0143 8.41277 15.0143H10.3302V12.2285H8.41277Z" fill="black"/>
<path fill-rule="evenodd" clip-rule="evenodd" d="M21 31.4999C21 27.1466 24.4941 23.6177 28.7958 23.6177C33.0974 23.6177 36.5915 27.1506 36.5915 31.4999C36.5915 35.8493 33.0974 39.3822 28.7958 39.3822C24.4902 39.4096 21 35.8768 21 31.4999Z" fill="#52BAD5"/>
<path fill-rule="evenodd" clip-rule="evenodd" d="M32.9188 28.5635L27.6427 26.7028C27.5573 26.6753 27.503 26.589 27.503 26.5065V25.9138C27.503 25.8 27.4175 25.7175 27.305 25.7175H26.183C26.0704 25.7175 25.985 25.8039 25.985 25.9138V36.8736C25.985 36.9874 26.0704 37.0698 26.183 37.0698H27.305C27.4175 37.0698 27.503 36.9835 27.503 36.8736V36.3397C27.503 36.2534 27.5573 36.1709 27.6427 36.1434L32.9188 34.538C33.0042 34.5105 33.0586 34.4241 33.0586 34.3417V33.1012C33.0586 33.0149 33.0042 32.9325 32.9188 32.905L29.4402 31.6371C29.2733 31.5821 29.2733 31.327 29.4402 31.272L32.8917 30.2004C32.9771 30.1729 33.0314 30.0865 33.0314 30.0041V28.7362C33.0586 28.6498 33.0042 28.5949 32.9188 28.5674V28.5635ZM30.8146 33.5409L27.6427 34.5262C27.5573 34.5537 27.503 34.4987 27.503 34.4123V32.6106C27.503 32.5242 27.5884 32.4693 27.6427 32.4967L30.8146 33.5409ZM30.8146 29.3132L27.6427 30.2985C27.5573 30.326 27.503 30.271 27.503 30.1847V28.3829C27.503 28.2965 27.5884 28.2416 27.6427 28.2691L30.8146 29.3132V29.3132Z" fill="white"/>
<path fill-rule="evenodd" clip-rule="evenodd" d="M53.8562 26.4363L50.7464 36.5443H49.2828L46.9378 29.2862C46.9106 29.2077 46.8835 29.1174 46.8563 29.0232C46.8291 28.929 46.8058 28.8269 46.7825 28.7248C46.7592 28.8347 46.7359 28.9329 46.7088 29.0232C46.6816 29.1134 46.6544 29.2037 46.6272 29.2862L44.259 36.5443H42.7954L39.6856 26.4363H41.0483C41.1881 26.4363 41.3045 26.4716 41.3977 26.5384C41.4909 26.6051 41.5569 26.6993 41.5918 26.8171L43.467 33.294C43.5058 33.4353 43.5408 33.5884 43.5718 33.7494C43.5796 33.7886 43.5873 33.8318 43.5951 33.875C43.6184 34.0006 43.6456 34.1301 43.6689 34.2597C43.6999 34.0791 43.7388 33.9103 43.7776 33.7454C43.8164 33.5806 43.8591 33.4314 43.9057 33.294L46.0488 26.8171C46.0798 26.7229 46.1458 26.6365 46.2429 26.5541C46.3399 26.4756 46.4564 26.4324 46.5884 26.4324H47.0582C47.2018 26.4324 47.3183 26.4677 47.4037 26.5423C47.4891 26.6169 47.559 26.7072 47.6056 26.8131L49.7409 33.2901C49.7875 33.4275 49.8302 33.5727 49.869 33.7258C49.9078 33.8789 49.9428 34.0477 49.9777 34.2204C49.9932 34.1419 50.0088 34.0634 50.0204 33.9849C50.0359 33.8946 50.0553 33.8083 50.0709 33.7258C50.1019 33.5688 50.133 33.4236 50.1718 33.2901L52.0392 26.8131C52.0664 26.7111 52.1324 26.6208 52.2333 26.5462C52.3343 26.4716 52.4508 26.4324 52.5828 26.4324H53.8562V26.4363ZM56.5466 29.8357C57.028 29.8357 57.4667 29.9142 57.855 30.0752C58.2471 30.2361 58.5771 30.4599 58.8527 30.7543C59.1284 31.0487 59.3419 31.4059 59.4895 31.822C59.6409 32.242 59.7146 32.7131 59.7146 33.2351C59.7146 33.7572 59.6409 34.2283 59.4895 34.6483C59.3419 35.0683 59.1284 35.4255 58.8527 35.7199C58.5771 36.0143 58.2432 36.242 57.855 36.403C57.4629 36.5639 57.028 36.6424 56.5466 36.6424C56.0652 36.6424 55.6226 36.5639 55.2305 36.403C54.8384 36.242 54.5045 36.0143 54.2289 35.7199C53.9532 35.4255 53.7358 35.0683 53.5883 34.6483C53.4369 34.2283 53.3631 33.7572 53.3631 33.2351C53.3631 32.7131 53.4369 32.242 53.5883 31.822C53.7358 31.402 53.9532 31.0487 54.2289 30.7543C54.5045 30.4599 54.8423 30.2322 55.2305 30.0752C55.6226 29.9142 56.0613 29.8357 56.5466 29.8357ZM56.5466 35.5551C57.1367 35.5551 57.5755 35.3549 57.8627 34.9545C58.15 34.5541 58.2937 33.9849 58.2937 33.243C58.2937 32.5011 58.15 31.928 57.8627 31.5237C57.5755 31.1193 57.1367 30.9191 56.5466 30.9191C55.9565 30.9191 55.5062 31.1193 55.215 31.5237C54.9238 31.928 54.7802 32.5011 54.7802 33.243C54.7802 33.9849 54.9238 34.558 55.215 34.9545C55.5062 35.3549 55.9487 35.5551 56.5466 35.5551ZM63.0767 30.1772C62.7894 30.4167 62.541 30.7464 62.3352 31.1664L62.2537 30.3028C62.2304 30.1694 62.1916 30.0752 62.1372 30.0202C62.079 29.9653 61.978 29.9378 61.8344 29.9378H61.0346V36.5443H62.4129V32.4383C62.4866 32.242 62.572 32.0654 62.6613 31.9083C62.7506 31.7513 62.8554 31.6179 62.9719 31.5119C63.0884 31.402 63.2204 31.3195 63.3679 31.2646C63.5154 31.2096 63.6863 31.1821 63.8765 31.1821C64.0085 31.1821 64.1327 31.1939 64.2531 31.2175C64.3734 31.241 64.4627 31.2528 64.5287 31.2528C64.587 31.2528 64.6374 31.2371 64.6724 31.2096C64.7112 31.1821 64.7384 31.1311 64.7539 31.0565L64.851 30.0084C64.75 29.9456 64.6413 29.8946 64.5171 29.8632C64.3929 29.8318 64.2609 29.8161 64.1211 29.8161C63.7134 29.8161 63.3679 29.9378 63.0767 30.1772ZM67.1416 32.5207H67.4366C67.5298 32.5207 67.6074 32.5089 67.6657 32.4815C67.7239 32.454 67.786 32.4029 67.852 32.3205L69.6845 30.2008C69.7505 30.1144 69.8204 30.0516 69.8941 30.0045C69.9718 29.9613 70.0689 29.9378 70.1892 29.9378H71.8276L69.2341 32.4501C69.106 32.6188 68.9663 32.7523 68.811 32.8504C68.8964 32.9093 68.9702 32.98 69.0362 33.0546C69.1022 33.1292 69.1604 33.2155 69.2225 33.3097L71.9634 36.5403H70.3445C70.2319 36.5403 70.1387 36.5207 70.0611 36.4854C69.9834 36.4501 69.9136 36.3794 69.8514 36.2813L67.9607 33.6905C67.8947 33.5924 67.8326 33.5256 67.7705 33.4981C67.7045 33.4707 67.6113 33.455 67.4832 33.455H67.1454V36.5364H65.7672V26.9466H67.1454V26.9584H67.1416V32.5207ZM78.3305 26.6287C77.8763 26.503 77.3327 26.4402 76.6921 26.4402H73.3689V36.5482H77.0338C77.6006 36.5482 78.1092 36.4736 78.5518 36.3284C78.9983 36.1831 79.371 35.9829 79.6738 35.7199C79.9805 35.4609 80.2095 35.1507 80.3687 34.7935C80.5279 34.4363 80.6094 34.0398 80.6094 33.612C80.6094 32.3951 79.9028 31.6336 78.4858 31.3313C78.8003 31.2332 79.0643 31.0997 79.2933 30.9466C79.5224 30.7935 79.7087 30.6208 79.8601 30.4245C80.0077 30.2283 80.1164 30.0241 80.1901 29.8004C80.2639 29.5766 80.2988 29.349 80.2988 29.1095C80.2988 28.7013 80.229 28.3284 80.0931 27.9986C79.9533 27.6689 79.7398 27.3902 79.4486 27.1586C79.1574 26.927 78.7847 26.7543 78.3305 26.6287ZM74.9917 30.8838V27.7238H76.6883C77.3716 27.7238 77.8801 27.8416 78.1985 28.0928C78.5168 28.3441 78.6799 28.7445 78.6799 29.3019C78.6799 29.8122 78.5091 30.2008 78.1674 30.4756C77.8258 30.7425 77.3094 30.8799 76.6145 30.8799H74.9917V30.8838ZM77.9306 35.1193C77.6821 35.2057 77.3715 35.2489 77.0066 35.2489V35.2567H74.9917V32.0457H76.9988C77.6899 32.0457 78.2024 32.1831 78.5207 32.454C78.8391 32.7248 79.0021 33.1056 79.0021 33.5806C79.0021 33.8161 78.9633 34.032 78.8934 34.2361C78.8235 34.4402 78.7071 34.6169 78.5479 34.7661C78.3887 34.9152 78.1791 35.033 77.9306 35.1193ZM84.8994 29.8357C85.3808 29.8357 85.8195 29.9142 86.2078 30.0752C86.5999 30.2361 86.9299 30.4599 87.2055 30.7543C87.4812 31.0487 87.6947 31.4059 87.8422 31.822C87.9898 32.242 88.0674 32.7131 88.0674 33.2351C88.0674 33.7572 87.9937 34.2283 87.8422 34.6483C87.6908 35.0683 87.4812 35.4255 87.2055 35.7199C86.9299 36.0143 86.596 36.242 86.2078 36.403C85.8157 36.5639 85.3808 36.6424 84.8994 36.6424C84.418 36.6424 83.9754 36.5639 83.5833 36.403C83.1912 36.242 82.8573 36.0143 82.5817 35.7199C82.306 35.4255 82.0925 35.0683 81.9411 34.6483C81.7897 34.2283 81.7159 33.7572 81.7159 33.2351C81.7159 32.7131 81.7897 32.242 81.9411 31.822C82.0886 31.402 82.3021 31.0487 82.5817 30.7543C82.8612 30.4599 83.1951 30.2322 83.5833 30.0752C83.9754 29.9142 84.4141 29.8357 84.8994 29.8357ZM84.8994 35.5551C85.4895 35.5551 85.9282 35.3549 86.2155 34.9545C86.5028 34.5541 86.6465 33.9849 86.6465 33.243C86.6465 32.5011 86.5028 31.928 86.2155 31.5237C85.9282 31.1193 85.4895 30.9191 84.8994 30.9191C84.3093 30.9191 83.859 31.1193 83.5678 31.5237C83.2766 31.928 83.133 32.5011 83.133 33.243C83.133 33.9849 83.2766 34.558 83.5678 34.9545C83.859 35.3549 84.3015 35.5551 84.8994 35.5551ZM91.8721 29.8161C90.8511 29.8161 89.9698 30.1655 89.2321 30.8603L89.2244 30.8642L89.4728 31.3156C89.5155 31.3902 89.5699 31.4491 89.6359 31.5001C89.7019 31.5511 89.7834 31.5747 89.8766 31.5747C89.9931 31.5747 90.1018 31.5394 90.2027 31.4726C90.3075 31.4059 90.424 31.3352 90.556 31.2567C90.6919 31.1782 90.8433 31.1076 91.0258 31.0408C91.2082 30.9741 91.4295 30.9388 91.6935 30.9388C92.0818 30.9388 92.3768 31.0565 92.5787 31.2881C92.7806 31.5237 92.8815 31.8769 92.8815 32.3519V32.7916C92.1361 32.8073 91.5111 32.8779 91.0064 33.0035C90.5017 33.1292 90.094 33.2862 89.7834 33.4785C89.4728 33.6709 89.2515 33.8868 89.1157 34.1301C88.9798 34.3735 88.9138 34.6208 88.9138 34.876C88.9138 35.1743 88.9604 35.4334 89.0574 35.6532C89.1506 35.873 89.2826 36.0575 89.4495 36.2067C89.6165 36.3558 89.8145 36.4658 90.0435 36.5403C90.2726 36.6149 90.5211 36.6503 90.7851 36.6503C91.0219 36.6503 91.2432 36.6267 91.4412 36.5874C91.6392 36.5482 91.8217 36.4854 91.9964 36.403C92.1711 36.3205 92.338 36.2185 92.5011 36.1007C92.6641 35.9829 92.8272 35.8495 92.9941 35.6964L93.13 36.2342C93.1766 36.3598 93.2348 36.4422 93.3047 36.4854C93.3746 36.5286 93.4755 36.5482 93.6075 36.5482H94.2209V32.3519C94.2209 31.9751 94.1705 31.6336 94.0657 31.3235C93.9608 31.0134 93.8094 30.7464 93.6114 30.5227C93.4134 30.2989 93.1649 30.1223 92.8738 30.0006C92.5826 29.8789 92.2487 29.8161 91.8721 29.8161ZM91.6431 33.7768C91.9808 33.714 92.3924 33.6709 92.8854 33.6552V33.6512V34.876C92.6408 35.135 92.3924 35.3313 92.1322 35.4687C91.876 35.6061 91.5654 35.6728 91.2082 35.6728C91.0646 35.6728 90.9365 35.6571 90.82 35.6257C90.7035 35.5904 90.5987 35.5394 90.5133 35.4687C90.424 35.398 90.358 35.3078 90.3075 35.1978C90.2571 35.0879 90.2338 34.9584 90.2338 34.8014C90.2338 34.6444 90.2765 34.4952 90.3697 34.3617C90.4589 34.2283 90.6104 34.1144 90.82 34.0163C91.0297 33.9182 91.3014 33.8397 91.6392 33.7768H91.6431ZM97.1288 31.1664C97.3346 30.7464 97.5831 30.4167 97.8704 30.1772C98.1615 29.9378 98.5071 29.8161 98.9147 29.8161C99.0545 29.8161 99.1865 29.8318 99.3107 29.8632C99.4349 29.8946 99.5436 29.9456 99.6446 30.0084L99.5475 31.0565C99.532 31.1311 99.5048 31.1821 99.466 31.2096C99.4311 31.2371 99.3806 31.2528 99.3224 31.2528C99.2564 31.2528 99.1671 31.241 99.0467 31.2175C98.9264 31.1939 98.8021 31.1821 98.6701 31.1821C98.476 31.1821 98.3091 31.2096 98.1615 31.2646C98.014 31.3195 97.882 31.402 97.7655 31.5119C97.6491 31.6218 97.5442 31.7513 97.4549 31.9083C97.3656 32.0654 97.2802 32.242 97.2065 32.4383V36.5443H95.8282V29.9339H96.628C96.7717 29.9339 96.8726 29.9613 96.9308 30.0163C96.9852 30.0712 97.024 30.1655 97.0473 30.2989L97.1288 31.1586V31.1664ZM105.891 36.5521V26.9584L104.517 26.9545V30.5109C104.3 30.2911 104.059 30.1184 103.791 29.9967C103.523 29.875 103.197 29.8122 102.813 29.8122C102.382 29.8122 101.993 29.8985 101.644 30.0752C101.295 30.2518 101 30.4913 100.755 30.8014C100.514 31.1115 100.328 31.4726 100.196 31.8926C100.068 32.3127 100.002 32.768 100.002 33.2587C100.002 33.8043 100.06 34.2872 100.176 34.7072C100.293 35.1272 100.46 35.4805 100.673 35.767C100.887 36.0536 101.143 36.2695 101.442 36.4187C101.741 36.5678 102.459 36.6424 102.828 36.6424C103.197 36.6424 103.275 36.5835 103.461 36.4658C103.515 36.4304 103.577 36.3912 103.655 36.3441C104.004 36.1439 104.315 35.8809 104.587 35.559L104.707 36.2773C104.758 36.454 104.878 36.5443 105.06 36.5443H105.891V36.5521ZM103.88 31.0487C104.109 31.1507 104.319 31.3235 104.513 31.5747V34.6483C104.296 34.9309 104.059 35.1468 103.806 35.2999C103.554 35.453 103.251 35.5315 102.902 35.5315C102.673 35.5315 102.463 35.4923 102.281 35.4098C102.098 35.3274 101.943 35.1939 101.815 35.0134C101.687 34.8328 101.59 34.5973 101.52 34.3107C101.454 34.0241 101.419 33.6748 101.419 33.2705C101.419 32.4893 101.57 31.9005 101.873 31.5001C102.176 31.0997 102.595 30.8995 103.135 30.8995C103.403 30.8995 103.655 30.9466 103.884 31.0487H103.88Z" fill="black"/>
<path d="M50.7464 36.5443V36.6424H50.8163L50.8357 36.5717L50.7425 36.5443L50.7464 36.5443ZM53.8562 26.4363L53.7863 26.3657L53.7708 26.3814L53.763 26.4049L53.8562 26.4324V26.4363ZM49.2828 36.5443L49.1896 36.5757L49.2129 36.6424H49.2828L49.2828 36.5443ZM46.7825 28.7248L46.8757 28.7052L46.7786 28.2695L46.6855 28.7052L46.7786 28.7248H46.7825ZM44.259 36.5443L44.259 36.6424H44.3289L44.3522 36.5757L44.259 36.5443ZM42.7954 36.5443L42.7022 36.5717L42.7216 36.6424H42.7915V36.5443L42.7954 36.5443ZM39.6856 26.4363L39.6856 26.3382H39.5536L39.5924 26.4638L39.6856 26.4363ZM43.6689 34.2597L43.5718 34.2754L43.6689 34.8249L43.7621 34.2754L43.665 34.2597H43.6689ZM47.6056 26.8131L47.6988 26.7817V26.7739L47.6095 26.8131H47.6056ZM49.9777 34.2204L49.8845 34.24L49.9855 34.7386L50.0748 34.24L49.9777 34.2243V34.2204ZM53.86 26.4324L53.9299 26.503L54.0969 26.3342H53.8639V26.4324H53.86ZM59.4895 31.8181L59.3963 31.8495L59.4856 31.8181H59.4895ZM59.4895 34.6444L59.4002 34.609L59.4933 34.6444H59.4895ZM53.5883 34.6444L53.6815 34.613L53.5922 34.6444H53.5883ZM53.5883 31.8181L53.6776 31.8534L53.5844 31.8181H53.5883ZM62.3352 31.1625H62.2382V31.5825L62.4206 31.2057L62.3352 31.1625ZM62.3352 31.1586H62.4323V31.1507L62.3352 31.1586ZM62.2537 30.2989L62.3507 30.2911V30.2832L62.2537 30.2989ZM62.1372 30.0163L62.2071 29.9456L62.1411 30.0163H62.1372ZM61.0346 29.9339V29.8357H60.9376V29.9339H61.0346ZM61.0346 36.5403H60.9376V36.6385H61.0346V36.5403ZM62.4129 36.5403V36.6385H62.5099V36.5403H62.4129ZM62.4129 32.4344L62.3236 32.399L62.3158 32.4147V32.4344H62.4129ZM64.6724 31.2057L64.618 31.1233H64.6142L64.6724 31.2057ZM64.7539 31.0526L64.851 31.0722V31.0605L64.7539 31.0526ZM64.851 30.0045L64.948 30.0124V29.9535L64.9014 29.9221L64.851 30.0045ZM67.1416 32.5168H67.0445V32.6149H67.1416V32.5168ZM67.1416 26.9584L67.1416 26.8603H67.0445V26.9584H67.1416ZM69.6845 30.1969L69.7583 30.2597V30.2557L69.6806 30.1969H69.6845ZM69.8942 30.0006L69.8476 29.9142L69.898 29.9967L69.8942 30.0006ZM71.8276 29.9339L71.8936 30.0045L72.0683 29.8357H71.8276V29.9339ZM69.2341 32.4461L69.1681 32.3755H69.1643L69.1604 32.3872L69.238 32.4461H69.2341ZM68.811 32.8465L68.7605 32.7641L68.6363 32.8426L68.7605 32.929L68.8149 32.8465H68.811ZM69.2225 33.3058L69.141 33.3608V33.3686L69.2147 33.3058H69.2225ZM71.9634 36.5364V36.6346H72.1731L72.0372 36.4736L71.9634 36.5364ZM69.8514 36.2773L69.933 36.2263V36.2224L69.8553 36.2813L69.8514 36.2773ZM67.9607 33.6866L67.8792 33.7415L67.9569 33.6866H67.9607ZM67.1454 33.451V33.3529H67.0484V33.451H67.1454ZM67.1454 36.5325V36.6306H67.2425V36.5325H67.1454ZM65.7672 36.5325H65.6702V36.6306H65.7672V36.5325ZM65.7672 26.9466V26.8485H65.6702V26.9466H65.7672ZM67.1454 26.9466H67.2425V26.8485H67.1454L67.1454 26.9466ZM67.1454 26.9584L67.1454 27.0565H67.2425V26.9584H67.1454ZM73.3689 26.4363V26.3382H73.2718V26.4363H73.3689ZM73.3689 36.5443H73.2718V36.6424H73.3689V36.5443ZM78.4858 31.3274L78.4586 31.2332L78.1014 31.3431L78.4664 31.4216L78.4858 31.3274ZM74.9917 27.7238V27.6257H74.8946V27.7238L74.9917 27.7238ZM74.9917 30.8799L74.8946 30.8799V30.978H74.9917V30.8799ZM77.0066 35.245V35.1468H76.9096V35.245H77.0066ZM77.0066 35.2528V35.3509H77.1037V35.2528H77.0066ZM74.9917 35.2528H74.8946V35.3509H74.9917V35.2528ZM74.9917 32.0418V31.9437H74.8946V32.0418H74.9917ZM86.2078 30.0712L86.169 30.1615L86.2039 30.0712H86.2078ZM89.2321 30.8563L89.1661 30.7857L89.1351 30.8132V30.8563H89.2321ZM89.2321 30.8603V30.9584H89.3292V30.8603H89.2321ZM89.2244 30.8603V30.7621H89.0574L89.1389 30.9074L89.2244 30.8603ZM90.2027 31.4687L90.1522 31.3863L90.2066 31.4687H90.2027ZM90.556 31.2528L90.5094 31.1664L90.5599 31.2528H90.556ZM92.8815 32.7876V32.8858H92.9786V32.7916H92.8815V32.7876ZM92.9941 35.6925L93.0873 35.6689L93.0485 35.5119L92.9281 35.6218L92.9941 35.6964V35.6925ZM93.13 36.2302L93.0368 36.2538V36.2656L93.1261 36.2302H93.13ZM94.2209 36.5443V36.6424H94.318V36.5443H94.2209ZM92.8854 33.6512V33.7494H92.9825V33.6552H92.8854V33.6512ZM92.8854 33.6473V33.5492H92.7884V33.6473H92.8854ZM92.8854 33.6473H92.9825V33.5492H92.8854V33.6473ZM92.8854 34.872L92.9553 34.9388L92.9825 34.9113V34.872H92.8854ZM90.5133 35.4648L90.5754 35.3902L90.5172 35.4648H90.5133ZM90.3697 34.3578L90.4473 34.4128L90.3658 34.3578H90.3697ZM97.1249 31.1625H97.0279V31.5825L97.2104 31.2057L97.1249 31.1625ZM99.6407 30.0045L99.7378 30.0124V29.9535L99.6912 29.9221L99.6407 30.0045ZM99.5436 31.0526L99.6368 31.0722V31.0605L99.5398 31.0526H99.5436ZM99.4621 31.2057L99.4078 31.1233L99.466 31.2057H99.4621ZM97.2026 32.4344L97.1133 32.399L97.1055 32.4147V32.4344H97.2026ZM97.2026 36.5403V36.6385H97.2996V36.5403H97.2026ZM95.8244 36.5403H95.7273V36.6385H95.8244V36.5403ZM95.8244 29.9339V29.8357H95.7273V29.9339H95.8244ZM96.9269 30.0163L96.9968 29.9456L96.9308 30.0163H96.9269ZM97.0434 30.2989L97.1405 30.2911V30.2832L97.0434 30.2989ZM97.1249 31.1586H97.222V31.1507L97.1249 31.1586ZM105.887 36.5443V36.6424H105.984V36.5443H105.887ZM105.887 26.9545H105.984V26.8563H105.887V26.9545ZM104.513 26.9545V26.8563H104.416V26.9545H104.513ZM104.513 30.5109L104.443 30.5816L104.61 30.7503V30.5148H104.513V30.5109ZM100.751 30.8014L100.677 30.7386L100.755 30.8014L100.751 30.8014ZM104.583 35.559L104.68 35.5433L104.645 35.3352L104.509 35.4962L104.583 35.559ZM104.703 36.2773L104.606 36.293V36.3048L104.699 36.2773H104.703ZM104.509 31.5668L104.439 31.6375L104.583 31.508L104.505 31.5668H104.509ZM104.509 31.5629L104.579 31.4923L104.412 31.3235V31.559H104.509V31.5629ZM104.509 34.6404L104.587 34.6993L104.606 34.6718V34.6365H104.509V34.6404ZM50.8396 36.5717L53.9493 26.4638L53.763 26.4049L50.6532 36.5129L50.8396 36.5717ZM49.2828 36.6424H50.7464V36.4461H49.2828V36.6424ZM46.8446 29.3176L49.1896 36.5757L49.3759 36.5129L47.031 29.2548L46.8446 29.3176ZM46.7631 29.0506C46.7903 29.1448 46.8175 29.2391 46.8446 29.3176L47.0271 29.2508C46.9999 29.1763 46.9728 29.086 46.9456 28.9918L46.7592 29.0467L46.7631 29.0506ZM46.6893 28.7484C46.7126 28.8504 46.7359 28.9564 46.7631 29.0506L46.9495 28.9957C46.9223 28.9054 46.899 28.8073 46.8757 28.7013L46.6855 28.7445L46.6893 28.7484ZM46.8019 29.0546C46.8291 28.9604 46.8524 28.8583 46.8796 28.7484L46.6893 28.7091C46.6661 28.819 46.6428 28.9132 46.6195 28.9996L46.8058 29.0585L46.8019 29.0546ZM46.7204 29.3215C46.7476 29.2391 46.7748 29.1448 46.8019 29.0546L46.6156 28.9957C46.5884 29.086 46.5612 29.1763 46.5341 29.2548L46.7165 29.3176L46.7204 29.3215ZM44.3522 36.5796L46.7204 29.3215L46.5379 29.2587L44.1697 36.5168L44.3522 36.5796ZM42.7953 36.6463H44.259V36.4501H42.7953V36.6463ZM39.5924 26.4638L42.7022 36.5717L42.8885 36.5129L39.7788 26.4088L39.5924 26.4677V26.4638ZM41.0483 26.3382H39.6856V26.5344H41.0483V26.3382ZM41.4521 26.4599C41.3395 26.3814 41.2036 26.3382 41.0483 26.3382V26.5344C41.1725 26.5344 41.2657 26.5658 41.3434 26.6169L41.4559 26.4559L41.4521 26.4599ZM41.6811 26.7896C41.6384 26.6522 41.5608 26.5384 41.4521 26.4599L41.3395 26.6208C41.4132 26.6758 41.4676 26.7503 41.4948 26.8485L41.6811 26.7935V26.7896ZM43.5563 33.2665L41.6811 26.7896L41.4948 26.8446L43.3699 33.3215L43.5563 33.2665ZM43.665 33.7297C43.6339 33.5649 43.599 33.4118 43.5602 33.2665L43.3738 33.3176C43.4126 33.455 43.4476 33.6081 43.4786 33.7651L43.6689 33.7258L43.665 33.7297ZM43.6883 33.8554C43.6805 33.8122 43.6728 33.7729 43.665 33.7297L43.4748 33.769C43.4825 33.8083 43.4903 33.8514 43.4981 33.8946L43.6883 33.8554ZM43.7621 34.24C43.7388 34.1066 43.7116 33.977 43.6883 33.8514L43.4981 33.8907C43.5213 34.0163 43.5485 34.1419 43.5718 34.2754L43.7621 34.24ZM43.6805 33.7219C43.6417 33.8868 43.6029 34.0595 43.5718 34.244L43.7621 34.2793C43.7931 34.1027 43.8319 33.9339 43.8708 33.769L43.6805 33.7219ZM43.8125 33.2626C43.7659 33.4039 43.7193 33.557 43.6805 33.7219L43.8708 33.769C43.9096 33.6081 43.9523 33.4628 43.995 33.3254L43.8125 33.2626ZM45.9556 26.7857L43.8125 33.2626L43.995 33.3254L46.1381 26.8485L45.9556 26.7857ZM46.1808 26.4795C46.0759 26.5698 45.9944 26.6679 45.9556 26.7857L46.1381 26.8485C46.1613 26.7778 46.2157 26.7032 46.3011 26.6287L46.1769 26.4795H46.1808ZM46.5884 26.3342C46.4331 26.3342 46.2972 26.3853 46.1808 26.4756L46.3011 26.6287C46.3826 26.5658 46.4758 26.5266 46.5845 26.5266V26.3303L46.5884 26.3342ZM47.0582 26.3342H46.5884V26.5305H47.0582V26.3342ZM47.4658 26.4677C47.3571 26.3735 47.2173 26.3342 47.0582 26.3342V26.5305C47.1863 26.5305 47.2795 26.5619 47.3416 26.6169L47.4697 26.4677H47.4658ZM47.691 26.7739C47.6366 26.6522 47.559 26.5501 47.4658 26.4677L47.3377 26.6169C47.4153 26.6836 47.4736 26.7621 47.5124 26.8524L47.691 26.7739ZM49.8302 33.2587L47.6949 26.7817L47.5124 26.8446L49.6477 33.3215L49.8302 33.2587ZM49.9583 33.7023C49.9195 33.5452 49.8768 33.4 49.8263 33.2587L49.6438 33.3215C49.6904 33.455 49.7331 33.6002 49.768 33.7494L49.9544 33.7023H49.9583ZM50.067 34.2008C50.0321 34.0281 49.9971 33.8554 49.9583 33.7023L49.7719 33.7494C49.8108 33.8985 49.8457 34.0673 49.8806 34.24L50.0709 34.2008H50.067ZM49.9195 33.9653C49.9039 34.0438 49.8884 34.1223 49.8729 34.2008L50.0631 34.2361C50.0786 34.1576 50.0942 34.0791 50.1058 34.0006L49.9156 33.9613L49.9195 33.9653ZM49.966 33.7101C49.9505 33.7925 49.935 33.8789 49.9195 33.9653L50.1097 34.0045C50.1252 33.9142 50.1446 33.8279 50.1602 33.7415L49.9699 33.7062L49.966 33.7101ZM50.0709 33.2626C50.032 33.4 49.9971 33.5492 49.966 33.7062L50.1563 33.7454C50.1873 33.5884 50.2184 33.4471 50.2533 33.3176L50.067 33.2626H50.0709ZM51.9383 26.7857L50.0709 33.2626L50.2572 33.3176L52.1246 26.8406L51.9383 26.7857ZM52.1673 26.4677C52.0509 26.5541 51.9693 26.6601 51.9383 26.7896L52.1246 26.8406C52.144 26.766 52.1945 26.6915 52.2838 26.6287L52.1712 26.4716L52.1673 26.4677ZM52.575 26.3342C52.4236 26.3342 52.2877 26.3814 52.1673 26.4677L52.2799 26.6247C52.3653 26.5619 52.4624 26.5305 52.5711 26.5305V26.3342H52.575ZM53.8523 26.3342H52.575V26.5305H53.8523V26.3342ZM57.886 29.981C57.4823 29.8161 57.0319 29.7337 56.5427 29.7337V29.9299C57.0125 29.9299 57.4396 30.0084 57.8162 30.1615L57.8899 29.981H57.886ZM58.9187 30.6836C58.6315 30.3774 58.2898 30.1458 57.886 29.981L57.8123 30.1615C58.1927 30.3186 58.5111 30.5344 58.7751 30.8171L58.9149 30.6836H58.9187ZM59.5749 31.7867C59.4235 31.3588 59.2022 30.9898 58.9187 30.6836L58.779 30.8171C59.043 31.0997 59.2526 31.4451 59.3963 31.8495L59.5787 31.7827L59.5749 31.7867ZM59.8039 33.2312C59.8039 32.7013 59.7302 32.2185 59.571 31.7827L59.3885 31.8495C59.536 32.2577 59.6059 32.717 59.6059 33.2273H59.8L59.8039 33.2312ZM59.571 34.6797C59.7263 34.2479 59.8039 33.7651 59.8039 33.2312H59.6098C59.6098 33.7454 59.536 34.2047 59.3924 34.609L59.5749 34.6758L59.571 34.6797ZM58.9149 35.7867C59.2022 35.4805 59.4196 35.1115 59.571 34.6797L59.3885 34.613C59.2449 35.0212 59.0391 35.3666 58.7712 35.6493L58.911 35.7827L58.9149 35.7867ZM57.8822 36.4932C58.282 36.3284 58.6276 36.0928 58.9149 35.7867L58.7751 35.6532C58.5111 35.9358 58.1889 36.1557 57.8123 36.3127L57.886 36.4932H57.8822ZM56.5389 36.7405C57.0319 36.7405 57.4784 36.662 57.8822 36.4932L57.8084 36.3127C57.4279 36.4697 57.0086 36.5443 56.535 36.5443V36.7405H56.5389ZM55.1878 36.4932C55.5916 36.6581 56.0497 36.7405 56.5389 36.7405V36.5443C56.0691 36.5443 55.6382 36.4658 55.2577 36.3127L55.1839 36.4932H55.1878ZM54.1512 35.7867C54.4385 36.0928 54.784 36.3284 55.1878 36.4932L55.2616 36.3127C54.8811 36.1557 54.5589 35.9358 54.2949 35.6532L54.1551 35.7867H54.1512ZM53.4912 34.6797C53.6426 35.1115 53.8678 35.4805 54.1512 35.7867L54.291 35.6532C54.0231 35.3706 53.8135 35.0251 53.6698 34.6169L53.4873 34.6836L53.4912 34.6797ZM53.2622 33.2351C53.2622 33.7651 53.3359 34.2479 53.4951 34.6836L53.6776 34.6169C53.53 34.2086 53.4602 33.7494 53.4602 33.2391H53.266L53.2622 33.2351ZM53.4951 31.7867C53.3398 32.2185 53.2622 32.7013 53.2622 33.2351H53.4563C53.4563 32.7209 53.53 32.2616 53.6737 31.8573L53.4912 31.7906L53.4951 31.7867ZM54.1551 30.6836C53.8717 30.9898 53.6465 31.3549 53.4951 31.7867L53.6776 31.8534C53.8212 31.4451 54.0309 31.1036 54.2987 30.821L54.159 30.6875L54.1551 30.6836ZM55.1917 29.981C54.7918 30.1419 54.4424 30.3774 54.1551 30.6836L54.2949 30.8171C54.5589 30.5344 54.885 30.3146 55.2616 30.1615L55.1878 29.981H55.1917ZM56.5427 29.7337C56.0458 29.7337 55.5955 29.8122 55.1917 29.981L55.2655 30.1615C55.6459 30.0045 56.0691 29.9299 56.5466 29.9299V29.7337H56.5427ZM57.7812 34.8917C57.5172 35.2607 57.1096 35.453 56.5427 35.453V35.6493C57.1562 35.6493 57.6298 35.4412 57.9365 35.0094L57.7812 34.8956V34.8917ZM58.1927 33.2391C58.1927 33.9692 58.0491 34.5148 57.7812 34.8917L57.9365 35.0055C58.2393 34.5816 58.3869 33.9888 58.3869 33.2351H58.1927V33.2391ZM57.7812 31.5786C58.053 31.9594 58.1927 32.5089 58.1927 33.2391H58.3869C58.3869 32.4854 58.2432 31.8887 57.9365 31.4608L57.7773 31.5747L57.7812 31.5786ZM56.5427 31.0134C57.1096 31.0134 57.5133 31.2057 57.7812 31.5786L57.9404 31.4648C57.6298 31.0291 57.16 30.821 56.5466 30.821V31.0173L56.5427 31.0134ZM55.2887 31.5786C55.5566 31.2057 55.9759 31.0134 56.5427 31.0134V30.8171C55.9293 30.8171 55.4479 31.0251 55.1335 31.4608L55.2887 31.5747V31.5786ZM54.8733 33.2391C54.8733 32.5089 55.017 31.9594 55.2887 31.5786L55.1335 31.4648C54.8268 31.8926 54.6792 32.4893 54.6792 33.243H54.8733V33.2391ZM55.2887 34.8917C55.0131 34.5188 54.8733 33.9692 54.8733 33.2391H54.6792C54.6792 33.9927 54.8229 34.5894 55.1335 35.0094L55.2887 34.8917ZM56.5427 35.453C55.9682 35.453 55.5566 35.2607 55.2887 34.8917L55.1335 35.0094C55.4479 35.4412 55.9216 35.6493 56.5427 35.6493V35.453ZM62.4167 31.2057C62.6186 30.7935 62.8593 30.4795 63.135 30.2479L63.0107 30.0948C62.7118 30.346 62.4556 30.6875 62.2459 31.1154L62.4206 31.2018L62.4167 31.2057ZM62.1527 30.3068L62.2343 31.1664L62.4284 31.1468L62.3469 30.2871L62.1527 30.3068ZM62.0634 30.083C62.0984 30.1184 62.1294 30.1851 62.1527 30.3146L62.343 30.2793C62.3197 30.138 62.277 30.0202 62.1993 29.9456L62.0634 30.083ZM61.8305 30.0281C61.9664 30.0281 62.0363 30.0555 62.0673 30.083L62.1993 29.9378C62.1139 29.8554 61.9819 29.8279 61.8305 29.8279V30.0281ZM61.0307 30.0281H61.8305V29.8318H61.0307V30.0281ZM61.1278 29.9339H60.9337V36.5403H61.1278V29.9339ZM62.409 36.4383H61.0307V36.6346H62.409V36.4383ZM62.3119 32.4304V36.5364H62.506V32.4304H62.3119ZM62.572 31.8534C62.4789 32.0143 62.3934 32.1949 62.3158 32.399L62.4983 32.4697C62.5682 32.2773 62.6536 32.1085 62.739 31.9555L62.572 31.8573V31.8534ZM62.902 31.4334C62.7778 31.5472 62.6652 31.6885 62.572 31.8534L62.739 31.9515C62.8244 31.8024 62.9214 31.6767 63.0302 31.5786L62.902 31.4334ZM63.3291 31.1664C63.1699 31.2253 63.0263 31.3156 62.902 31.4334L63.034 31.5786C63.1427 31.4766 63.2631 31.402 63.399 31.3509L63.333 31.1664H63.3291ZM63.8726 31.0762C63.6746 31.0762 63.4922 31.1036 63.3291 31.1664L63.3951 31.3509C63.531 31.2999 63.6902 31.2764 63.8687 31.2764V31.0801L63.8726 31.0762ZM64.2686 31.1115C64.1405 31.0879 64.0124 31.0762 63.8726 31.0762V31.2724C63.9969 31.2724 64.1172 31.2842 64.2298 31.3078L64.2686 31.1154V31.1115ZM64.5249 31.1468C64.4666 31.1468 64.3851 31.135 64.2686 31.1115L64.2298 31.3038C64.3502 31.3274 64.4472 31.3392 64.5249 31.3392V31.1429V31.1468ZM64.6103 31.1233C64.6103 31.1233 64.5676 31.1468 64.5249 31.1468V31.3431C64.5986 31.3431 64.6724 31.3235 64.7267 31.2803L64.6064 31.1272L64.6103 31.1233ZM64.6569 31.0291C64.6452 31.0919 64.6258 31.1154 64.6142 31.1233L64.7267 31.2842C64.7966 31.2371 64.8316 31.1547 64.8471 31.0722L64.6569 31.033V31.0291ZM64.7539 29.9927L64.6569 31.0408L64.851 31.0605L64.948 30.0124L64.7539 29.9927ZM64.4938 29.9535C64.6064 29.981 64.7073 30.0281 64.8005 30.087L64.9014 29.9182C64.7927 29.8514 64.6763 29.7965 64.5404 29.7611L64.4938 29.9496V29.9535ZM64.1211 29.9103C64.2531 29.9103 64.3773 29.926 64.4938 29.9535L64.5404 29.7651C64.4084 29.7297 64.2686 29.714 64.1211 29.714V29.9103ZM63.1389 30.2479C63.4106 30.0241 63.7367 29.9103 64.1211 29.9103V29.714C63.694 29.714 63.3252 29.8436 63.0146 30.0987L63.1389 30.2518V30.2479ZM67.2386 32.5168V26.9584H67.0445V32.5168H67.2386ZM67.4366 32.4187H67.1416V32.6149H67.4366V32.4187ZM67.623 32.3872C67.5841 32.4069 67.522 32.4187 67.4366 32.4187V32.6149C67.5337 32.6149 67.6307 32.6031 67.7045 32.5678L67.623 32.3912V32.3872ZM67.7744 32.2538C67.7161 32.3284 67.6618 32.3676 67.623 32.3872L67.7045 32.5639C67.7783 32.5286 67.852 32.4658 67.9258 32.3755L67.7744 32.2538ZM69.6107 30.1301L67.7783 32.2499L67.9258 32.3794L69.7583 30.2597L69.6107 30.1301ZM69.8437 29.9142C69.7583 29.9692 69.6806 30.0398 69.6107 30.1341L69.7621 30.2557C69.8204 30.1772 69.8825 30.1223 69.9485 30.083L69.8437 29.9182V29.9142ZM70.1892 29.8318C70.0572 29.8318 69.9407 29.8593 69.8476 29.9103L69.9407 30.083C69.999 30.0477 70.0805 30.0281 70.1892 30.0281V29.8318ZM71.8276 29.8318H70.1892V30.0281H71.8276V29.8318ZM69.3001 32.5129L71.8936 30.0006L71.7577 29.8593L69.1643 32.3715L69.3001 32.5129ZM68.8614 32.925C69.0284 32.819 69.1759 32.6777 69.3118 32.5011L69.1565 32.3833C69.0323 32.5443 68.9041 32.6699 68.7605 32.7602L68.8614 32.925ZM69.106 32.98C69.0362 32.9015 68.9585 32.823 68.8614 32.7602L68.7527 32.9211C68.8304 32.9761 68.8964 33.0389 68.9585 33.1095L69.1021 32.98H69.106ZM69.3001 33.2469C69.238 33.1527 69.1759 33.0624 69.106 32.98L68.9624 33.1095C69.0245 33.1763 69.0789 33.2587 69.141 33.3529L69.304 33.243L69.3001 33.2469ZM72.0333 36.4697L69.2924 33.2391L69.1449 33.3686L71.8858 36.5992L72.0333 36.4697ZM70.3406 36.6306H71.9596V36.4344H70.3406V36.6306ZM70.0184 36.5678C70.1116 36.611 70.2164 36.6306 70.3406 36.6306V36.4344C70.2397 36.4344 70.162 36.4187 70.096 36.3873L70.0145 36.5678H70.0184ZM69.766 36.3284C69.832 36.4344 69.9174 36.5246 70.0184 36.5678L70.0999 36.3873C70.0456 36.3637 69.9873 36.3087 69.933 36.2185L69.7699 36.3244L69.766 36.3284ZM67.8792 33.7415L69.7699 36.3323L69.9252 36.2145L68.0345 33.6238L67.8792 33.7415ZM67.7278 33.5806C67.7627 33.5963 67.8132 33.6434 67.8753 33.7376L68.0345 33.6277C67.9685 33.5256 67.8909 33.4393 67.8016 33.4L67.7239 33.5806H67.7278ZM67.4793 33.5452C67.5997 33.5452 67.6812 33.5609 67.7278 33.5806L67.8016 33.4C67.72 33.3647 67.6113 33.349 67.4793 33.349V33.5452ZM67.1416 33.5452H67.4793V33.349H67.1416V33.5452ZM67.2386 36.5286V33.4471H67.0445V36.5286H67.2386ZM65.7633 36.6267H67.1416V36.4304H65.7633V36.6267ZM65.6663 26.9427V36.5286H65.8604V26.9466H65.6663V26.9427ZM67.1416 26.8446H65.7633V27.0408H67.1416V26.8446ZM67.2386 26.9545V26.9427H67.0445V26.9545H67.2386ZM67.1377 27.0526H67.1416V26.8563H67.1377V27.0526ZM76.6883 26.5305C77.325 26.5305 77.8568 26.5933 78.2994 26.715L78.3499 26.5266C77.884 26.3971 77.3327 26.3342 76.6844 26.3342V26.5305H76.6883ZM73.3689 26.5305H76.6883V26.3342H73.3689V26.5305ZM73.4659 26.4363H73.2718V36.5443H73.4659V26.4363ZM77.0338 36.4422H73.3689V36.6385H77.0338V36.4422ZM78.5207 36.2263C78.0898 36.3676 77.5928 36.4422 77.0338 36.4422V36.6385C77.6084 36.6385 78.1286 36.5639 78.5828 36.4147L78.5246 36.2263H78.5207ZM79.6078 35.6375C79.3166 35.8887 78.9556 36.085 78.5207 36.2263L78.579 36.4147C79.0371 36.2656 79.4214 36.0614 79.7359 35.7867L79.6078 35.6375ZM80.2794 34.7464C80.1241 35.0919 79.9067 35.3902 79.6117 35.6375L79.7359 35.7867C80.0543 35.5197 80.2911 35.1939 80.458 34.8249L80.2794 34.7425V34.7464ZM80.5124 33.6041C80.5124 34.0202 80.4347 34.401 80.2794 34.7464L80.458 34.8289C80.625 34.4599 80.7065 34.0477 80.7065 33.6081H80.5124V33.6041ZM78.4664 31.4177C79.1613 31.5668 79.6738 31.8259 80.0077 32.1871C80.3416 32.5443 80.5124 33.0153 80.5124 33.6041H80.7065C80.7065 32.9761 80.524 32.454 80.1513 32.0536C79.7786 31.6532 79.2273 31.3823 78.5091 31.2292L78.4703 31.4216L78.4664 31.4177ZM79.239 30.8563C79.0177 31.0055 78.7614 31.135 78.4547 31.2292L78.513 31.4177C78.8352 31.3156 79.1108 31.1782 79.3438 31.0212L79.2351 30.8563H79.239ZM79.7825 30.3539C79.6388 30.5423 79.4603 30.7072 79.239 30.8563L79.3477 31.0212C79.5845 30.8642 79.7786 30.6836 79.9378 30.4795L79.7864 30.3578L79.7825 30.3539ZM80.097 29.7572C80.0271 29.9692 79.9223 30.1655 79.7825 30.3539L79.9378 30.4716C80.0892 30.2675 80.2057 30.0555 80.2833 29.82L80.097 29.7572ZM80.2018 29.0977C80.2018 29.3254 80.1668 29.5452 80.097 29.7572L80.2833 29.82C80.361 29.5845 80.3959 29.349 80.3959 29.0977H80.2018ZM80.0038 28.0261C80.1358 28.3441 80.2018 28.7013 80.2018 29.0977H80.3959C80.3959 28.6777 80.3221 28.293 80.1824 27.9476L80.0038 28.0222V28.0261ZM79.3904 27.2253C79.6699 27.4491 79.8718 27.7121 80.0038 28.0261L80.1824 27.9476C80.0348 27.6022 79.8135 27.3117 79.5068 27.0683L79.3865 27.2214L79.3904 27.2253ZM78.3072 26.7111C78.7537 26.8328 79.1108 27.0016 79.3904 27.2253L79.5107 27.0722C79.2079 26.8289 78.8197 26.6522 78.3577 26.5266L78.3072 26.715V26.7111ZM74.8985 27.716V30.872H75.0926V27.7238H74.8985V27.716ZM76.6921 27.6179H74.9956V27.8141H76.6921V27.6179ZM78.2606 28.0065C77.9151 27.7356 77.3793 27.6179 76.6921 27.6179V27.8141C77.3677 27.8141 77.8491 27.9319 78.1441 28.1635L78.2645 28.0104L78.2606 28.0065ZM78.7808 29.294C78.7808 28.717 78.61 28.2852 78.2606 28.0065L78.1403 28.1596C78.4275 28.3872 78.5828 28.7523 78.5828 29.2901H78.777L78.7808 29.294ZM78.2296 30.5462C78.5984 30.2518 78.7808 29.8318 78.7808 29.294H78.5867C78.5867 29.7808 78.4237 30.138 78.1092 30.3892L78.2296 30.5423V30.5462ZM76.6184 30.9702C77.325 30.9702 77.8646 30.8328 78.2296 30.5462L78.1092 30.3892C77.7908 30.6365 77.3017 30.7739 76.6145 30.7739V30.9702H76.6184ZM74.9956 30.9702H76.6184V30.7739H74.9956V30.9702ZM77.0105 35.3352C77.3832 35.3352 77.7054 35.2921 77.9655 35.2018L77.9034 35.0173C77.6705 35.0997 77.3677 35.1429 77.0105 35.1429V35.3392V35.3352ZM77.1076 35.245V35.2371H76.9134V35.245H77.1076ZM74.9956 35.3431H77.0105V35.1468H74.9956V35.3431ZM74.8985 32.034V35.245H75.0926V32.034H74.8985ZM77.0027 31.9358H74.9956V32.1321H77.0027V31.9358ZM78.5867 32.3676C78.2412 32.0732 77.7016 31.9358 77.0027 31.9358V32.1321C77.686 32.1321 78.1674 32.2695 78.4625 32.5168L78.5867 32.3676ZM79.1031 33.5688C79.1031 33.0703 78.9323 32.6581 78.5867 32.3676L78.4625 32.5168C78.7575 32.768 78.909 33.1174 78.909 33.5688H79.1031ZM78.9905 34.2557C79.0643 34.0399 79.1031 33.8161 79.1031 33.5688H78.909C78.909 33.7925 78.8701 33.9967 78.8041 34.1929L78.9866 34.2557H78.9905ZM78.6178 34.8249C78.7886 34.664 78.9128 34.4756 78.9905 34.2557L78.808 34.1929C78.742 34.3814 78.6372 34.5462 78.4897 34.6836L78.6217 34.8289L78.6178 34.8249ZM77.9655 35.1978C78.2218 35.1076 78.447 34.9859 78.6178 34.8249L78.4858 34.6797C78.3383 34.8171 78.1403 34.9309 77.9034 35.0134L77.9655 35.1978ZM86.2466 29.9692C85.8428 29.8043 85.3925 29.7219 84.9033 29.7219V29.9182C85.3731 29.9182 85.8001 29.9967 86.1767 30.1498L86.2505 29.9692H86.2466ZM87.2793 30.6718C86.992 30.3657 86.6504 30.1341 86.2466 29.9692L86.1728 30.1498C86.5533 30.3068 86.8717 30.5227 87.1357 30.8053L87.2754 30.6718H87.2793ZM87.9354 31.7749C87.784 31.347 87.5627 30.978 87.2793 30.6718L87.1395 30.8053C87.4035 31.0879 87.6132 31.4334 87.7568 31.8377L87.9393 31.771L87.9354 31.7749ZM88.1684 33.2194C88.1684 32.6856 88.0907 32.2067 87.9354 31.7749L87.753 31.8416C87.8966 32.2499 87.9742 32.7091 87.9742 33.2234H88.1684V33.2194ZM87.9354 34.6679C88.0907 34.2361 88.1684 33.7533 88.1684 33.2194H87.9742C87.9742 33.7337 87.9005 34.1929 87.753 34.5973L87.9354 34.664V34.6679ZM87.2793 35.7749C87.5666 35.4687 87.7801 35.0997 87.9354 34.6679L87.753 34.6012C87.6054 35.0094 87.4035 35.3549 87.1357 35.6375L87.2754 35.771L87.2793 35.7749ZM86.2466 36.4815C86.6465 36.3166 86.992 36.0811 87.2793 35.7749L87.1395 35.6414C86.8755 35.9241 86.5533 36.1439 86.1767 36.3009L86.2505 36.4815H86.2466ZM84.9033 36.7288C85.3964 36.7288 85.8428 36.6503 86.2466 36.4815L86.1728 36.3009C85.7924 36.4579 85.3731 36.5325 84.8994 36.5325V36.7288H84.9033ZM83.5522 36.4815C83.956 36.6463 84.4141 36.7288 84.9033 36.7288V36.5325C84.4335 36.5325 84.0026 36.454 83.6221 36.3009L83.5484 36.4815H83.5522ZM82.5157 35.7749C82.803 36.0811 83.1485 36.3166 83.5522 36.4815L83.626 36.3009C83.2455 36.1439 82.9233 35.9241 82.6593 35.6414L82.5196 35.7749H82.5157ZM81.8557 34.6679C82.011 35.0997 82.2323 35.4687 82.5157 35.7749L82.6554 35.6414C82.3914 35.3588 82.1818 35.0134 82.0343 34.6051L81.8518 34.6718L81.8557 34.6679ZM81.6227 33.2194C81.6227 33.7494 81.6965 34.2322 81.8557 34.6679L82.0381 34.6012C81.8906 34.1929 81.8168 33.7337 81.8168 33.2234H81.6227V33.2194ZM81.8557 31.771C81.7004 32.2028 81.6227 32.6856 81.6227 33.2194H81.8168C81.8168 32.7052 81.8906 32.2459 82.0381 31.8416L81.8557 31.7749V31.771ZM82.5157 30.6679C82.2245 30.9741 82.0071 31.3392 81.8518 31.771L82.0343 31.8377C82.1779 31.4294 82.3837 31.0879 82.6554 30.8053L82.5157 30.6679ZM83.5522 29.9653C83.1524 30.1262 82.8068 30.3617 82.5157 30.6679L82.6554 30.8053C82.9233 30.5227 83.2455 30.3028 83.6221 30.1498L83.5484 29.9692L83.5522 29.9653ZM84.9033 29.718C84.4064 29.718 83.956 29.7965 83.5522 29.9653L83.626 30.1458C84.0026 29.9888 84.4297 29.9142 84.9072 29.9142V29.718H84.9033ZM86.1418 34.876C85.8778 35.245 85.4701 35.4373 84.9033 35.4373V35.6336C85.5167 35.6336 85.9865 35.4255 86.2971 34.9937L86.1379 34.8799L86.1418 34.876ZM86.5533 33.2234C86.5533 33.9535 86.4097 34.4991 86.1418 34.876L86.301 34.9898C86.6038 34.5659 86.7513 33.9731 86.7513 33.2194H86.5572L86.5533 33.2234ZM86.1418 31.5629C86.4135 31.9437 86.5533 32.4932 86.5533 33.2234H86.7474C86.7474 32.4697 86.5999 31.873 86.2971 31.4451L86.1379 31.559L86.1418 31.5629ZM84.9033 30.9976C85.4701 30.9976 85.8739 31.19 86.1418 31.5629L86.301 31.4491C85.9904 31.0134 85.5206 30.8053 84.9072 30.8053V31.0016L84.9033 30.9976ZM83.6493 31.5629C83.9172 31.19 84.3365 30.9976 84.9033 30.9976V30.8014C84.2899 30.8014 83.8085 31.0094 83.494 31.4451L83.6493 31.559V31.5629ZM83.2339 33.2234C83.2339 32.4932 83.3775 31.9437 83.6493 31.5629L83.494 31.4491C83.1873 31.8769 83.0398 32.4736 83.0398 33.2273H83.2339V33.2234ZM83.6493 34.876C83.3737 34.5031 83.2339 33.9535 83.2339 33.2234H83.0398C83.0398 33.977 83.1834 34.5737 83.494 34.9937L83.6493 34.876ZM84.9033 35.4373C84.3287 35.4373 83.9172 35.245 83.6493 34.876L83.494 34.9937C83.8085 35.4255 84.2821 35.6336 84.9033 35.6336V35.4373ZM89.302 30.9113C90.0202 30.2322 90.8782 29.8946 91.876 29.8946V29.6983C90.8317 29.6983 89.9271 30.0555 89.17 30.77L89.302 30.9152V30.9113ZM89.2283 30.9427H89.236V30.7464H89.2283V30.9427ZM89.5621 31.2489L89.3137 30.7975L89.1428 30.8917L89.3913 31.3431L89.5621 31.2489ZM89.698 31.402C89.6398 31.3588 89.5971 31.3078 89.5582 31.245L89.3913 31.3431C89.4418 31.4294 89.5039 31.5001 89.5815 31.5551L89.698 31.398V31.402ZM89.8805 31.4569C89.8028 31.4569 89.7446 31.4373 89.698 31.402L89.5815 31.559C89.6669 31.6257 89.7718 31.6532 89.8805 31.6532V31.4569ZM90.1522 31.3706C90.0668 31.4294 89.9737 31.4569 89.8805 31.4569V31.6532C90.0164 31.6532 90.1445 31.61 90.2609 31.5354L90.1561 31.3706H90.1522ZM90.5094 31.1507C90.3774 31.2292 90.2609 31.2999 90.1522 31.3666L90.2571 31.5315C90.3619 31.4648 90.4745 31.3941 90.6065 31.3156L90.5094 31.1468V31.1507ZM90.9947 30.927C90.8084 30.9937 90.6492 31.0683 90.5094 31.1507L90.6065 31.3195C90.7385 31.245 90.8821 31.1743 91.0607 31.1115L90.9947 30.927ZM91.6935 30.821C91.4218 30.821 91.1888 30.8563 90.9947 30.927L91.0607 31.1115C91.2315 31.0487 91.4412 31.0134 91.6935 31.0134V30.8171V30.821ZM92.6525 31.2018C92.4273 30.9427 92.1012 30.821 91.6935 30.821V31.0173C92.0624 31.0173 92.3264 31.1272 92.5049 31.3352L92.6525 31.2057V31.2018ZM92.9786 32.3323C92.9786 31.8455 92.8738 31.4648 92.6525 31.2057L92.5049 31.3352C92.6835 31.5472 92.7845 31.873 92.7845 32.3362H92.9786V32.3323ZM92.9786 32.7719V32.3323H92.7845V32.7719H92.9786ZM91.0297 33.0781C91.5266 32.9564 92.1439 32.8858 92.8854 32.8701V32.6738C92.1322 32.6895 91.4994 32.7602 90.9831 32.8897L91.0297 33.082V33.0781ZM89.8339 33.5413C90.1328 33.3568 90.5288 33.2037 91.0297 33.0781L90.9831 32.8858C90.4745 33.0114 90.0552 33.1723 89.733 33.3725L89.8339 33.5413ZM89.2011 34.1576C89.3253 33.9339 89.535 33.7258 89.8339 33.5413L89.733 33.3725C89.4146 33.5727 89.1778 33.7965 89.0302 34.0595L89.2011 34.1576ZM89.0108 34.8563C89.0108 34.6208 89.073 34.3892 89.2011 34.1576L89.0302 34.0595C88.8866 34.3146 88.8167 34.5816 88.8167 34.8524H89.0108V34.8563ZM89.1467 35.5943C89.0574 35.3902 89.0108 35.1468 89.0108 34.8563H88.8167C88.8167 35.1664 88.8633 35.4373 88.9681 35.6728L89.1467 35.5943ZM89.5155 36.1125C89.3602 35.9751 89.236 35.8024 89.1467 35.5943L88.9681 35.6728C89.0652 35.9044 89.2088 36.1007 89.3835 36.2616L89.5117 36.1164L89.5155 36.1125ZM90.0746 36.4265C89.8572 36.3558 89.6708 36.2538 89.5155 36.1125L89.3874 36.2577C89.566 36.4187 89.7757 36.5325 90.0164 36.611L90.0746 36.4226V36.4265ZM90.7851 36.5325C90.5288 36.5325 90.292 36.4972 90.0746 36.4265L90.0164 36.6149C90.2571 36.6934 90.5172 36.7288 90.7889 36.7288V36.5325H90.7851ZM91.4218 36.4697C91.2315 36.5089 91.0141 36.5325 90.7851 36.5325V36.7288C91.0297 36.7288 91.2548 36.7052 91.4606 36.666L91.4218 36.4736V36.4697ZM91.9537 36.293C91.7867 36.3716 91.612 36.4344 91.4218 36.4697L91.4606 36.662C91.6664 36.6228 91.8566 36.556 92.0391 36.4697L91.9575 36.293H91.9537ZM92.4428 35.9986C92.2837 36.1125 92.1206 36.2106 91.9537 36.293L92.0352 36.4697C92.2177 36.3833 92.3885 36.2773 92.5554 36.1596L92.4428 35.9986ZM92.9281 35.6022C92.7651 35.7513 92.602 35.8848 92.4428 35.9986L92.5554 36.1596C92.7224 36.0379 92.8893 35.9044 93.0562 35.7474L92.9242 35.6022H92.9281ZM93.2232 36.1871L93.0873 35.6493L92.8971 35.6964L93.0329 36.2342L93.2232 36.1871ZM93.3552 36.3794C93.3125 36.3519 93.262 36.293 93.2193 36.1792L93.0368 36.2499C93.0873 36.3833 93.1533 36.4893 93.2504 36.5521L93.3513 36.3833L93.3552 36.3794ZM93.6075 36.4265C93.4833 36.4265 93.4018 36.4069 93.3552 36.3794L93.2542 36.5482C93.3474 36.6071 93.4678 36.6267 93.6075 36.6267V36.4265ZM94.2209 36.4265H93.6075V36.6228H94.2209V36.4265ZM94.1239 32.3284V36.5246H94.318V32.3284H94.1239ZM93.9725 31.3313C94.0734 31.6296 94.1239 31.9594 94.1239 32.3284H94.318C94.318 31.9437 94.2675 31.5904 94.1588 31.2685L93.9764 31.3313H93.9725ZM93.5377 30.5659C93.7279 30.7778 93.8715 31.033 93.9725 31.3313L94.1549 31.2685C94.0462 30.9466 93.8871 30.6679 93.6813 30.4324L93.5377 30.5619V30.5659ZM92.8349 30.0673C93.1145 30.1851 93.3513 30.35 93.5377 30.5659L93.6813 30.4363C93.4717 30.2008 93.2115 30.0163 92.9087 29.8907L92.8349 30.0712V30.0673ZM91.8721 29.8907C92.2371 29.8907 92.5593 29.9535 92.8349 30.0673L92.9087 29.8868C92.602 29.7611 92.2565 29.6944 91.8682 29.6944V29.8907H91.8721ZM92.8815 33.5335C92.3846 33.5492 91.9692 33.5924 91.6237 33.6552L91.6586 33.8475C91.9886 33.7847 92.3962 33.7415 92.8854 33.7258L92.8777 33.5295L92.8815 33.5335ZM92.9864 34.8524V33.6277H92.7922V34.8524H92.9864ZM92.1827 35.5315C92.4545 35.3863 92.7107 35.1861 92.9631 34.9191L92.8233 34.7818C92.5826 35.033 92.3458 35.2253 92.0934 35.3549L92.1827 35.5276V35.5315ZM91.216 35.7474C91.5848 35.7474 91.911 35.6768 92.1866 35.5315L92.0973 35.3588C91.8566 35.4883 91.5654 35.5511 91.2199 35.5511V35.7474H91.216ZM90.8006 35.6964C90.9248 35.7317 91.0646 35.7474 91.216 35.7474V35.5511C91.0801 35.5511 90.9598 35.5354 90.8511 35.508L90.8006 35.6964ZM90.4589 35.5197C90.556 35.6022 90.6725 35.6571 90.8006 35.6964L90.8549 35.508C90.7462 35.4766 90.6531 35.4294 90.5832 35.3706L90.4589 35.5237V35.5197ZM90.226 35.2136C90.2804 35.3352 90.358 35.4373 90.4589 35.5197L90.5793 35.3666C90.5055 35.3078 90.4473 35.2293 90.4007 35.1311L90.226 35.2136ZM90.1445 34.7739C90.1445 34.9388 90.1678 35.084 90.226 35.2136L90.4007 35.1311C90.358 35.0369 90.3347 34.9231 90.3347 34.7778H90.1406L90.1445 34.7739ZM90.2998 34.2793C90.1949 34.4324 90.1445 34.6012 90.1445 34.7739H90.3386C90.3386 34.6365 90.3774 34.507 90.4551 34.3892L90.2959 34.2754L90.2998 34.2793ZM90.7889 33.9025C90.5715 34.0045 90.4007 34.1262 90.2998 34.2832L90.4589 34.3931C90.5327 34.2793 90.6686 34.1772 90.8705 34.083L90.7889 33.9064V33.9025ZM91.6314 33.6552C91.2898 33.718 91.0102 33.8004 90.7889 33.9025L90.8705 34.0791C91.0685 33.9849 91.3325 33.9103 91.6664 33.8475L91.6314 33.6552ZM97.816 30.0752C97.5171 30.3264 97.2608 30.6679 97.0473 31.0958L97.222 31.1821C97.4239 30.77 97.6646 30.4559 97.9402 30.2243L97.816 30.0712V30.0752ZM98.9225 29.6905C98.4954 29.6905 98.1266 29.82 97.816 30.0752L97.9402 30.2283C98.212 30.0045 98.5381 29.8907 98.9225 29.8907V29.6905ZM99.3418 29.7415C99.2098 29.7062 99.07 29.6905 98.9225 29.6905V29.8868C99.0545 29.8868 99.1787 29.9025 99.2952 29.9299L99.3418 29.7415ZM99.7028 29.8985C99.5941 29.8318 99.4776 29.7768 99.3418 29.7415L99.2952 29.9299C99.4078 29.9574 99.5087 30.0045 99.6019 30.0634L99.7028 29.8946V29.8985ZM99.6524 31.0408L99.7494 29.9927L99.5553 29.9731L99.4582 31.0212L99.6524 31.0408ZM99.5281 31.2646C99.598 31.2175 99.6291 31.135 99.6485 31.0526L99.4582 31.0134C99.4427 31.0762 99.4272 31.0997 99.4155 31.1076L99.5281 31.2685V31.2646ZM99.3301 31.3274C99.4039 31.3274 99.4776 31.3078 99.532 31.2646L99.4116 31.1115C99.4116 31.1115 99.3689 31.135 99.3262 31.135V31.3313L99.3301 31.3274ZM99.0351 31.2921C99.1554 31.3156 99.2525 31.3274 99.3301 31.3274V31.1311C99.2719 31.1311 99.1904 31.1193 99.0739 31.0958L99.0351 31.2881V31.2921ZM98.6779 31.2567C98.8021 31.2567 98.9225 31.2685 99.0351 31.2921L99.0739 31.0997C98.9458 31.0762 98.8177 31.0644 98.6779 31.0644V31.2607V31.2567ZM98.2042 31.3313C98.3401 31.2803 98.4954 31.2567 98.6779 31.2567V31.0605C98.476 31.0605 98.2974 31.0879 98.1344 31.1507L98.2004 31.3352L98.2042 31.3313ZM97.8393 31.559C97.948 31.4569 98.0684 31.3823 98.2042 31.3313L98.1382 31.1468C97.9791 31.2057 97.8354 31.296 97.7112 31.4137L97.8432 31.559H97.8393ZM97.5481 31.9319C97.6335 31.7827 97.7306 31.661 97.8393 31.559L97.7073 31.4137C97.5831 31.5315 97.4744 31.6689 97.3773 31.8338L97.5442 31.9319H97.5481ZM97.3074 32.4461C97.3773 32.2538 97.4627 32.085 97.5481 31.9319L97.3812 31.8338C97.288 31.9947 97.2026 32.1753 97.1249 32.3794L97.3074 32.4501V32.4461ZM97.3152 36.5168V32.4108H97.1211V36.5168H97.3152ZM95.8399 36.6149H97.2181V36.4187H95.8399V36.6149ZM95.7428 29.9103V36.5168H95.937V29.9339H95.7428V29.9103ZM96.6397 29.8122H95.8399V30.0084H96.6397V29.8122ZM97.0085 29.9221C96.9231 29.8396 96.7911 29.8122 96.6397 29.8122V30.0084C96.7755 30.0084 96.8454 30.0359 96.8765 30.0634L97.0085 29.9182V29.9221ZM97.156 30.2597C97.1327 30.1184 97.0861 30.0006 97.0124 29.926L96.8765 30.0634C96.9114 30.0987 96.9425 30.1655 96.9658 30.295L97.156 30.2597ZM97.2375 31.1272L97.156 30.2675L96.9619 30.2871L97.0434 31.1468L97.2375 31.1272ZM105.806 26.9348V36.5207H106V26.9584H105.806V26.9348ZM104.529 27.029H105.903V26.8328H104.529V27.029ZM104.626 26.9545H104.432V30.5109H104.626V26.9545ZM103.764 30.0634C104.02 30.1812 104.253 30.346 104.459 30.558L104.595 30.4206C104.369 30.1929 104.121 30.0124 103.841 29.8868L103.76 30.0673L103.764 30.0634ZM102.824 29.8868C103.197 29.8868 103.511 29.9496 103.764 30.0634L103.845 29.8828C103.562 29.7533 103.22 29.6905 102.828 29.6905V29.8868H102.824ZM101.698 30.138C102.032 29.9692 102.405 29.8868 102.824 29.8868V29.6905C102.382 29.6905 101.978 29.7808 101.613 29.9653L101.698 30.1419V30.138ZM100.84 30.8367C101.077 30.5384 101.361 30.3068 101.698 30.138L101.613 29.9613C101.252 30.1458 100.945 30.3931 100.693 30.715L100.844 30.8367H100.84ZM100.297 31.8966C100.425 31.4883 100.607 31.135 100.84 30.8367L100.689 30.715C100.44 31.0369 100.25 31.4059 100.114 31.8377L100.301 31.8966H100.297ZM100.107 33.2312C100.107 32.7484 100.173 32.3048 100.297 31.8926L100.11 31.8338C99.9785 32.2656 99.9125 32.7288 99.9125 33.2273H100.107V33.2312ZM100.277 34.6522C100.165 34.244 100.107 33.769 100.107 33.2312H99.9125C99.9125 33.7847 99.9707 34.2754 100.091 34.7072L100.277 34.6561V34.6522ZM100.759 35.6807C100.553 35.4059 100.39 35.0644 100.277 34.6522L100.091 34.7032C100.211 35.1311 100.382 35.4962 100.604 35.7945L100.759 35.6768V35.6807ZM101.493 36.3048C101.209 36.1635 100.965 35.9555 100.759 35.6807L100.604 35.7984C100.825 36.0968 101.093 36.3244 101.407 36.4775L101.493 36.3009V36.3048ZM102.836 36.5168C102.657 36.5168 102.389 36.4972 102.129 36.4618C101.865 36.4265 101.628 36.3716 101.493 36.3048L101.407 36.4815C101.57 36.5639 101.838 36.6228 102.102 36.6581C102.37 36.6974 102.646 36.7131 102.836 36.7131V36.5168ZM103.414 36.3558C103.321 36.4147 103.263 36.454 103.185 36.4775C103.108 36.5011 103.007 36.5168 102.836 36.5168V36.7131C103.018 36.7131 103.143 36.6974 103.247 36.666C103.352 36.6306 103.43 36.5796 103.519 36.5207L103.414 36.3558ZM103.616 36.2342C103.535 36.2813 103.469 36.3244 103.414 36.3558L103.519 36.5207C103.574 36.4854 103.632 36.4461 103.709 36.403L103.612 36.2302L103.616 36.2342ZM104.521 35.4726C104.257 35.7867 103.954 36.0418 103.616 36.2342L103.713 36.4069C104.074 36.1988 104.393 35.9319 104.672 35.5982L104.525 35.4726H104.521ZM104.812 36.2381L104.692 35.5197L104.501 35.5511L104.622 36.2695L104.812 36.2381ZM105.068 36.4226C104.994 36.4226 104.94 36.403 104.901 36.3755C104.862 36.348 104.831 36.3009 104.808 36.2263L104.622 36.2813C104.653 36.3873 104.703 36.4736 104.785 36.5325C104.866 36.5914 104.963 36.6189 105.068 36.6189V36.4226ZM105.899 36.4226H105.068V36.6189H105.899V36.4226ZM104.598 31.4844C104.397 31.2214 104.175 31.0408 103.927 30.9309L103.849 31.1115C104.059 31.2057 104.257 31.3666 104.443 31.61L104.595 31.4883L104.598 31.4844ZM104.451 31.61L104.587 31.4766H104.583L104.447 31.61H104.451ZM104.618 34.6169V31.5394H104.424V34.6169H104.618ZM103.865 35.3509C104.129 35.19 104.373 34.9662 104.598 34.6758L104.443 34.5541C104.234 34.8289 104.004 35.0369 103.764 35.1821L103.865 35.3509ZM102.91 35.5982C103.275 35.5982 103.593 35.5158 103.865 35.3509L103.764 35.1821C103.531 35.3235 103.244 35.398 102.91 35.398V35.5982ZM102.25 35.4687C102.448 35.559 102.669 35.5982 102.91 35.5982V35.402C102.692 35.402 102.494 35.3627 102.327 35.2881L102.25 35.4687ZM101.745 35.0408C101.881 35.2332 102.052 35.3784 102.25 35.4687L102.327 35.2881C102.164 35.2136 102.021 35.0919 101.9 34.9231L101.741 35.0369L101.745 35.0408ZM101.434 34.3029C101.504 34.5973 101.609 34.8446 101.745 35.0408L101.904 34.927C101.788 34.7582 101.694 34.5384 101.625 34.2597L101.434 34.3068V34.3029ZM101.33 33.2391C101.33 33.6473 101.364 34.0045 101.434 34.3029L101.625 34.2597C101.559 33.981 101.528 33.6395 101.528 33.243H101.333L101.33 33.2391ZM101.803 31.4098C101.481 31.8338 101.33 32.4501 101.33 33.2391H101.524C101.524 32.4697 101.675 31.9044 101.958 31.5276L101.803 31.4098ZM103.143 30.77C102.576 30.77 102.125 30.9819 101.803 31.4098L101.958 31.5276C102.242 31.1547 102.63 30.9662 103.143 30.9662V30.77ZM103.931 30.927C103.686 30.8171 103.422 30.77 103.143 30.77V30.9662C103.399 30.9662 103.64 31.0094 103.853 31.1076L103.931 30.927Z" fill="black"/>
<path d="M4.73295 28.9091V34H3.57955L1.74006 31.3253H1.71023V34H0.328125V28.9091H1.50142L3.31108 31.5739H3.35085V28.9091H4.73295ZM10.3185 31.4545C10.3185 32.0213 10.2083 32.4994 9.98793 32.8888C9.76752 33.2766 9.47005 33.5708 9.09553 33.7713C8.721 33.9702 8.30339 34.0696 7.84268 34.0696C7.37867 34.0696 6.9594 33.9693 6.58487 33.7688C6.212 33.5666 5.91536 33.2717 5.69496 32.8839C5.47621 32.4944 5.36683 32.018 5.36683 31.4545C5.36683 30.8878 5.47621 30.4105 5.69496 30.0227C5.91536 29.6333 6.212 29.3391 6.58487 29.1403C6.9594 28.9397 7.37867 28.8395 7.84268 28.8395C8.30339 28.8395 8.721 28.9397 9.09553 29.1403C9.47005 29.3391 9.76752 29.6333 9.98793 30.0227C10.2083 30.4105 10.3185 30.8878 10.3185 31.4545ZM8.89666 31.4545C8.89666 31.1496 8.85606 30.8928 8.77486 30.6839C8.69531 30.4735 8.57682 30.3144 8.41939 30.2067C8.26361 30.0973 8.07138 30.0426 7.84268 30.0426C7.61399 30.0426 7.42093 30.0973 7.26349 30.2067C7.10772 30.3144 6.98923 30.4735 6.90803 30.6839C6.82848 30.8928 6.78871 31.1496 6.78871 31.4545C6.78871 31.7595 6.82848 32.0172 6.90803 32.2276C6.98923 32.4364 7.10772 32.5955 7.26349 32.7049C7.42093 32.8126 7.61399 32.8665 7.84268 32.8665C8.07138 32.8665 8.26361 32.8126 8.41939 32.7049C8.57682 32.5955 8.69531 32.4364 8.77486 32.2276C8.85606 32.0172 8.89666 31.7595 8.89666 31.4545ZM11.9293 34L10.4279 28.9091H11.9691L12.6651 32.0412H12.7049L13.5302 28.9091H14.7433L15.5685 32.0511H15.6083L16.3043 28.9091H17.8455L16.3441 34H15.0217L14.1566 31.1562H14.1168L13.2518 34H11.9293Z" fill="#2EA4C3"/>
</g>
<defs>
<clipPath id="clip0_234_16780">
<rect width="107" height="40" fill="white"/>
</clipPath>
</defs>
</svg>
